<svg xmlns="http://www.w3.org/2000/svg" viewBox="0 0 256 256"><path fill="#d1d3d4" d="M128 219.312a5 5 0 0 1-5-5V41.688a5 5 0 1 1 10 0v172.624a5 5 0 0 1-5 5z"/><path fill="#d1d3d4" d="M53.257 176.157a4.999 4.999 0 0 1-2.505-9.331l149.496-86.312a4.998 4.998 0 0 1 6.83 1.83 4.999 4.999 0 0 1-1.83 6.83L55.752 175.486a4.985 4.985 0 0 1-2.495.671z"/><path fill="#d1d3d4" d="M202.743 176.157a4.972 4.972 0 0 1-2.495-.671L50.752 89.174a4.999 4.999 0 0 1-1.83-6.83 4.998 4.998 0 0 1 6.83-1.83l149.496 86.312a4.999 4.999 0 0 1-2.505 9.331z"/><path fill="#a54af4" d="M169.873 150.023v-44.046c0-1.332-.71-2.562-1.864-3.228l-38.145-22.023a3.728 3.728 0 0 0-3.728 0l-38.145 22.023a3.728 3.728 0 0 0-1.864 3.228v44.046c0 1.332.71 2.562 1.864 3.228l38.145 22.023a3.728 3.728 0 0 0 3.728 0l38.145-22.023a3.727 3.727 0 0 0 1.864-3.228z"/><path fill="#b171f4" d="M92.13 146.37a2 2 0 0 1-2-2v-37.08c0-.71.38-1.38 1-1.73L127 84.85c.609-.35 1.39-.35 2 0l18.62 10.75c.949.55 1.279 1.77.729 2.73-.53.92-1.81 1.27-2.729.73L128 88.89l-33.87 19.55v35.93c0 1.1-.901 2-2 2zm61.41-43.04c-.34 0-.69-.1-.99-.27a2 2 0 0 1-.74-2.73c.54-.92 1.811-1.27 2.74-.73.95.55 1.28 1.77.73 2.73-.36.61-1.02 1-1.74 1z"/><path fill="#893add" d="m168.009 102.749-8.136-4.697v41.972a3.728 3.728 0 0 1-1.864 3.228l-38.145 22.023a3.728 3.728 0 0 1-3.728 0l-30.009-17.326v2.074c0 1.332.711 2.562 1.864 3.228l38.145 22.023a3.728 3.728 0 0 0 3.728 0l38.145-22.023a3.728 3.728 0 0 0 1.864-3.228v-44.046a3.727 3.727 0 0 0-1.864-3.228z"/><path fill="#6c2bc1" d="m168.009 102.749-3.139-1.812c0 .014.003.027.003.04v44.046a3.728 3.728 0 0 1-1.864 3.228l-38.145 22.023a3.728 3.728 0 0 1-3.728 0l-35.006-20.21a3.727 3.727 0 0 0 1.861 3.188l38.145 22.023a3.728 3.728 0 0 0 3.728 0l38.145-22.023a3.728 3.728 0 0 0 1.864-3.228v-44.046a3.727 3.727 0 0 0-1.864-3.229z"/><path fill="#fff" d="m147.585 126.823-18.687-30.444a1.054 1.054 0 0 0-1.796 0l-18.687 30.444a1.053 1.053 0 0 0 .354 1.453l18.687 11.265c.335.202.753.202 1.088 0l18.687-11.265c.501-.302.66-.955.354-1.453z"/><path fill="#fff" d="m146.692 133.129-18.14 11.144a1.053 1.053 0 0 1-1.103 0l-18.14-11.144c-.325-.2-.69.189-.471.501l18.301 26.045c.42.597 1.304.597 1.724 0l18.301-26.045c.218-.311-.147-.7-.472-.501z"/><path fill="#58595b" d="M150.134 68.087h-44.268a4.265 4.265 0 0 1-4.265-4.265V19.554a4.265 4.265 0 0 1 4.265-4.265h44.268a4.265 4.265 0 0 1 4.265 4.265v44.268a4.264 4.264 0 0 1-4.265 4.265z"/><path fill="#414042" d="M142.772 59.307h-29.544a2.847 2.847 0 0 1-2.847-2.847V26.916a2.847 2.847 0 0 1 2.847-2.847h29.544a2.847 2.847 0 0 1 2.847 2.847V56.46a2.847 2.847 0 0 1-2.847 2.847z"/><path fill="#58595b" d="M150.134 240.711h-44.268a4.265 4.265 0 0 1-4.265-4.265v-44.268a4.265 4.265 0 0 1 4.265-4.265h44.268a4.265 4.265 0 0 1 4.265 4.265v44.268a4.265 4.265 0 0 1-4.265 4.265z"/><path fill="#414042" d="M142.772 231.931h-29.544a2.847 2.847 0 0 1-2.847-2.847V199.54a2.847 2.847 0 0 1 2.847-2.847h29.544a2.847 2.847 0 0 1 2.847 2.847v29.544a2.847 2.847 0 0 1-2.847 2.847z"/><path fill="#58595b" d="m65.047 138.788 22.134 38.337a4.266 4.266 0 0 1-1.561 5.827l-38.337 22.134a4.266 4.266 0 0 1-5.827-1.561l-22.134-38.337a4.266 4.266 0 0 1 1.561-5.827l38.337-22.134a4.266 4.266 0 0 1 5.827 1.561z"/><path fill="#414042" d="m61.124 149.553 14.772 25.586a2.847 2.847 0 0 1-1.042 3.889L49.268 193.8a2.847 2.847 0 0 1-3.889-1.042l-14.772-25.586a2.847 2.847 0 0 1 1.042-3.889l25.586-14.772a2.848 2.848 0 0 1 3.889 1.042z"/><path fill="#58595b" d="m214.544 52.476 22.134 38.337a4.266 4.266 0 0 1-1.561 5.827l-38.337 22.134a4.266 4.266 0 0 1-5.827-1.561l-22.134-38.337a4.266 4.266 0 0 1 1.561-5.827l38.337-22.134a4.266 4.266 0 0 1 5.827 1.561z"/><path fill="#414042" d="m210.621 63.241 14.772 25.586a2.847 2.847 0 0 1-1.042 3.889l-25.586 14.772a2.847 2.847 0 0 1-3.889-1.042L180.104 80.86a2.847 2.847 0 0 1 1.042-3.889l25.586-14.772a2.848 2.848 0 0 1 3.889 1.042z"/><path fill="#58595b" d="m168.819 177.125 22.134-38.337a4.266 4.266 0 0 1 5.827-1.561l38.337 22.134a4.266 4.266 0 0 1 1.561 5.827l-22.134 38.337a4.266 4.266 0 0 1-5.827 1.561l-38.337-22.134a4.266 4.266 0 0 1-1.561-5.827z"/><path fill="#414042" d="m180.104 175.14 14.772-25.586a2.847 2.847 0 0 1 3.889-1.042l25.586 14.772a2.847 2.847 0 0 1 1.042 3.889l-14.772 25.586a2.847 2.847 0 0 1-3.889 1.042l-25.586-14.772a2.847 2.847 0 0 1-1.042-3.889z"/><path fill="#58595b" d="m19.322 90.813 22.134-38.337a4.266 4.266 0 0 1 5.827-1.561L85.62 73.049a4.266 4.266 0 0 1 1.561 5.827l-22.134 38.337a4.266 4.266 0 0 1-5.827 1.561L20.884 96.639a4.264 4.264 0 0 1-1.562-5.826z"/><path fill="#414042" d="m30.607 88.828 14.772-25.586a2.847 2.847 0 0 1 3.889-1.042l25.586 14.772a2.847 2.847 0 0 1 1.042 3.889l-14.772 25.586a2.847 2.847 0 0 1-3.889 1.042L31.649 92.716a2.847 2.847 0 0 1-1.042-3.888z"/><path fill="#ffa91a" d="M126.061 49.821a3.114 3.114 0 0 1-2.207-.914l-6.146-6.146a3.121 3.121 0 1 1 4.414-4.414l3.939 3.939 7.817-7.817a3.121 3.121 0 1 1 4.414 4.414l-10.024 10.024a3.114 3.114 0 0 1-2.207.914zm0 172.979a3.114 3.114 0 0 1-2.207-.914l-6.146-6.146a3.121 3.121 0 1 1 4.414-4.414l3.939 3.939 7.817-7.817a3.121 3.121 0 1 1 4.414 4.414l-10.024 10.024a3.114 3.114 0 0 1-2.207.914zM51.313 92.977a3.114 3.114 0 0 1-2.207-.914l-6.146-6.146a3.121 3.121 0 1 1 4.414-4.414l3.939 3.939 7.817-7.817a3.121 3.121 0 1 1 4.414 4.414L53.519 92.063a3.11 3.11 0 0 1-2.206.914zM200.809 92.977a3.114 3.114 0 0 1-2.207-.914l-6.146-6.146a3.121 3.121 0 1 1 4.414-4.414l3.939 3.939 7.817-7.817a3.121 3.121 0 1 1 4.414 4.414l-10.024 10.024a3.112 3.112 0 0 1-2.207.914zM51.313 179.288a3.114 3.114 0 0 1-2.207-.914l-6.146-6.146a3.121 3.121 0 1 1 4.414-4.414l3.939 3.939 7.817-7.817a3.121 3.121 0 1 1 4.414 4.414L53.52 178.374a3.11 3.11 0 0 1-2.207.914zM200.809 179.288a3.114 3.114 0 0 1-2.207-.914l-6.146-6.146a3.121 3.121 0 1 1 4.414-4.414l3.939 3.939 7.817-7.817a3.121 3.121 0 1 1 4.414 4.414l-10.024 10.024a3.108 3.108 0 0 1-2.207.914z"/></svg>