<svg xmlns="http://www.w3.org/2000/svg" data-name="Layer 1" viewBox="0 0 512 512"><path fill="#e0cac3" d="M399.29,81.41V81.4a8.545,8.545,0,0,0-.46-2c-15.36-43.28-55.45-43.08-55.45-43.08-142.91-8.67-83.12,271.79-175.74,315.65C95.59,386.09,50.54,425,29.01,446.5a10.225,10.225,0,0,0,6.81,17.44l269.96,11.93a10.219,10.219,0,0,0,10.54-8.39c9.22-52.36-3.27-92.56-15.57-180.73-12.97-93.04,40.2-135.23,40.2-135.23,8.76-1.47,18.51-4.81,29.3-10.63,0,0-3.88-11.74,2.32-21.44a22.036,22.036,0,0,1,6.29-6.36C399.28,99.25,399.72,85.6,399.29,81.41Z"/><path fill="#c66666" d="M458.66,140.93c-35.43-1.57-88.41-.04-88.41-.04s-3.88-11.74,2.32-21.44h.01S399.38,116.37,458.66,140.93Z"/><path fill="#706872" d="M345.72,70a8.83,8.83,0,1,1-8.87,8.83A8.845,8.845,0,0,1,345.72,70Z"/><path fill="#e87070" d="M372.57,119.45a22.036,22.036,0,0,1,6.29-6.36c20.42-13.84,20.86-27.49,20.43-31.68,0,0,5.24,5.68,17.85,17.67,28.11,26.74,59.27,18.25,68.75,42.26a1.5,1.5,0,0,1-1.69,2.03c-5.54-1.19-14.72-1.96-25.54-2.44-59.28-24.56-86.08-21.48-86.08-21.48Z"/><path fill="#ccb0a8" d="M170.32 404.06c33.11-9.2 81.44 21.06 50.95 68.07v.01L98.14 466.69S139.42 412.65 170.32 404.06zM187.64 371.97c92.62-43.86 32.83-324.32 175.74-315.65a60.271 60.271 0 0128.681 8.841A60.763 60.763 0 00343.38 36.32c-142.91-8.67-83.12 271.79-175.74 315.65C95.59 386.09 50.54 425 29.01 446.5a10.225 10.225 0 006.81 17.44l15.1.667C73.147 442.772 117.653 405.113 187.64 371.97z"/><path fill="#c66666" d="M406.7,114a6,6,0,0,1-1.719-.252l-1.539-.46a6,6,0,0,1,3.432-11.5l1.54.459A6,6,0,0,1,406.7,114Z"/><path fill="#f4f8fc" d="M258.019 181.7a6 6 0 01-5.881-7.221q.513-2.475 1.041-4.935a6 6 0 1111.733 2.515q-.519 2.421-1.025 4.861A6 6 0 01258.019 181.7zM186.648 370.97a6 6 0 01-2.572-11.424c37.373-17.7 48.426-78.7 60.129-143.29q1.54-8.5 3.107-17.014a6 6 0 1111.8 2.189q-1.57 8.472-3.1 16.965c-12.268 67.708-23.856 131.66-66.8 152A5.988 5.988 0 01186.648 370.97z"/></svg>