<svg xmlns="http://www.w3.org/2000/svg" enable-background="new 0 0 24 24" viewBox="0 0 24 24" id="twitter-old-logo"><path fill="#55acee" d="m17.75 13.438c1.587 0 2.875-1.288 2.875-2.875s-1.288-2.875-2.875-2.875h-8.625v-4.313c0-1.587-1.288-2.875-2.875-2.875s-2.875 1.288-2.875 2.875v11.5c0 4.757 3.869 8.625 8.625 8.625h5.75c1.587 0 2.875-1.288 2.875-2.875s-1.288-2.875-2.875-2.875h-5.75c-1.585 0-2.875-1.29-2.875-2.875v-1.438h8.625z"></path><path d="m17.5 24h-5.5c-4.963 0-9-4.122-9-9.188v-11.25c0-1.964 1.57-3.562 3.5-3.562s3.5 1.598 3.5 3.562v3.469h7.5c1.93 0 3.5 1.598 3.5 3.562s-1.57 3.562-3.5 3.562h-7.5v.656c0 1.137.897 2.062 2 2.062h5.5c1.93 0 3.5 1.598 3.5 3.562s-1.57 3.565-3.5 3.565zm-11-22.5c-1.103 0-2 .925-2 2.062v11.25c0 4.239 3.364 7.688 7.5 7.688h5.5c1.103 0 2-.925 2-2.062s-.897-2.062-2-2.062h-5.5c-1.93 0-3.5-1.598-3.5-3.562v-1.406c0-.414.336-.75.75-.75h8.25c1.103 0 2-.925 2-2.062s-.897-2.062-2-2.062h-8.25c-.414 0-.75-.336-.75-.75v-4.222c0-1.137-.897-2.062-2-2.062z"></path></svg>